PathFileType	4	(X/Y/Z)	s01c0101.trc
DataRate	CameraRate	NumFrames	NumMarkers	Units	OrigDataRate	OrigDataStartFrame	OrigNumFrames
200	200	4	47	mm	200	250	2000
Frame#	Time	racr			lacr			c7			jug			rlel			rdr			llel			ldr			s2			lic			ric			lasi			rasi			rpsi			lpsi			rgt			lgt			rth1			rth2			rth3			rth4			rlfc			rsh1			rsh2			rsh3			rsh4			rlmal			rmmal			rcal			rtoe			rmt5			lth1			lth2			lth4			lth3			llfc			lsh1			lsh2			lsh3			lsh4			llmal			lcal			ltoe			lmt5			SBIKE			LBIKE			RBIKE			
		X1	Y1	Z1	X2	Y2	Z2	X3	Y3	Z3	X4	Y4	Z4	X5	Y5	Z5	X6	Y6	Z6	X7	Y7	Z7	X8	Y8	Z8	X9	Y9	Z9	X10	Y10	Z10	X11	Y11	Z11	X12	Y12	Z12	X13	Y13	Z13	X14	Y14	Z14	X15	Y15	Z15	X16	Y16	Z16	X17	Y17	Z17	X18	Y18	Z18	X19	Y19	Z19	X20	Y20	Z20	X21	Y21	Z21	X22	Y22	Z22	X23	Y23	Z23	X24	Y24	Z24	X25	Y25	Z25	X26	Y26	Z26	X27	Y27	Z27	X28	Y28	Z28	X29	Y29	Z29	X30	Y30	Z30	X31	Y31	Z31	X32	Y32	Z32	X33	Y33	Z33	X34	Y34	Z34	X35	Y35	Z35	X36	Y36	Z36	X37	Y37	Z37	X38	Y38	Z38	X39	Y39	Z39	X40	Y40	Z40	X41	Y41	Z41	X42	Y42	Z42	X43	Y43	Z43	X44	Y44	Z44	X45	Y45	Z45	X46	Y46	Z46	X47	Y47	Z47	
250	1.2500	508.323370	1339.798472	-149.492575	477.273020	1346.169143	-441.682593	428.813867	1404.862579	-281.174597	455.495810	1239.511612	-285.685298	587.165709	1073.596387	-54.648061	723.467806	847.727317	-88.772035	529.008879	1069.677297	-551.024065	706.898227	882.433954	-478.057719	-87.334971	1167.251050	-239.574209	84.315720	1181.502801	-416.091199	87.642193	1151.244901	-97.956258	80.958952	1127.678583	-396.106992	105.380976	1103.786721	-123.642213	-50.992862	1201.640940	-186.345834	-61.176462	1213.954858	-291.700900	20.214601	1039.509570	-64.976344	25.640390	1069.895900	-452.000240	109.418203	937.307873	-58.790318	165.533945	876.531393	-64.499021	221.014707	805.889226	-76.627350	205.276113	910.579892	-79.456341	257.050450	697.124339	-101.373335	191.112537	598.957599	-68.207954	156.364212	521.752809	-71.678363	111.330675	445.207998	-82.802263	197.385700	502.446480	-111.409090	43.103614	336.985499	-102.872583	94.937145	336.743867	-178.125705	-4.252261	323.763848	-161.857791	229.529373	183.597779	-136.750121	121.237659	205.979048	-73.839905	125.381961	989.596661	-453.145780	224.186965	980.004776	-452.288286	222.410525	1027.977387	-437.518594	291.194496	950.050200	-429.801249	384.316896	896.040759	-408.381012	324.095625	799.766038	-434.281821	294.619382	717.563733	-429.649736	263.091584	638.504548	-417.647875	347.392657	700.304996	-402.762856	217.165350	520.861627	-404.638287	166.549158	478.478673	-361.974170	442.553835	483.008969	-388.989503	336.228168	452.247954	-448.461337	-228.170820	891.027865	-253.159215	-21.271305	80.013876	-453.930111	-21.514472	80.539036	-54.061938	
251	1.2550	508.563639	1339.847257	-149.417289	477.419143	1346.801289	-441.915522	429.092931	1405.132923	-281.072455	455.792595	1239.717890	-285.794281	587.333510	1073.467495	-54.793200	723.524515	847.558250	-88.858662	530.110177	1070.432463	-550.846401	707.087465	882.608447	-477.831619	-86.869414	1167.292209	-239.438417	84.718218	1181.669591	-416.126611	88.187328	1151.205682	-97.906740	81.431142	1127.808812	-396.042493	105.966844	1103.936488	-123.643724	-50.558107	1201.737196	-186.232042	-60.764117	1213.985511	-291.619452	20.957139	1039.545608	-64.946654	26.095987	1069.923740	-451.799306	110.327507	937.703776	-58.993907	166.506850	877.125265	-64.779235	222.156649	806.497033	-76.852070	206.196301	911.214828	-79.677926	258.281214	697.651892	-101.503883	191.992436	599.777760	-68.404666	156.905903	522.730118	-71.856969	111.538927	446.399228	-82.958323	197.844898	503.150904	-111.617336	42.837944	338.450166	-103.011949	94.961474	338.148031	-178.136922	-4.625205	325.376158	-161.990658	228.527816	184.193672	-136.737758	120.394800	207.089342	-73.836211	125.760439	989.284421	-453.123945	223.671939	979.207585	-452.062608	222.835582	1027.462229	-437.374104	291.494570	949.453958	-429.713425	384.477032	894.951033	-408.154662	324.548015	797.593725	-433.869358	294.969787	716.294429	-429.564854	263.626383	637.073993	-417.495872	347.827762	699.043263	-402.664392	217.879545	519.256655	-404.577336	167.387811	476.680286	-361.905953	443.389488	482.202871	-389.046973	337.173443	451.041921	-448.518938	-228.105111	891.045992	-253.206001	-21.259401	80.025508	-453.953778	-21.515665	80.558721	-54.054375	
252	1.2600	508.821099	1339.913428	-149.296262	477.655314	1347.431134	-442.013000	429.387074	1405.338853	-280.939289	456.061678	1239.939362	-285.910356	587.508610	1073.283008	-55.024206	723.594845	847.416596	-88.917793	531.144185	1071.042792	-550.595424	707.221458	882.815443	-477.575401	-86.363241	1167.261916	-239.360496	84.923414	1181.761133	-416.127759	88.692152	1151.212675	-97.862893	81.883256	1127.946703	-396.101105	106.423140	1104.066348	-123.712847	-50.056327	1201.750907	-186.121010	-60.352882	1214.021332	-291.520050	21.824864	1039.470020	-64.802845	26.526084	1069.948794	-451.662608	111.366427	938.203520	-59.195317	167.545022	877.651013	-65.080337	223.237407	807.109473	-77.130821	207.106134	911.745357	-80.056896	259.402682	698.220749	-101.769700	192.769628	600.605330	-68.678779	157.364797	523.726487	-72.093654	111.652508	447.586170	-83.236089	198.254091	504.014298	-111.835119	42.414687	339.997047	-103.161345	94.377259	339.215666	-178.352819	-5.071808	326.967315	-162.140639	227.582898	184.809154	-136.687366	119.459924	208.095955	-73.973903	126.098631	988.949455	-453.124534	223.146858	978.396854	-451.835903	223.074587	1026.969451	-437.465333	291.734401	948.785957	-429.616926	384.619802	893.609170	-407.935088	324.884143	796.137506	-433.800641	295.367600	714.824716	-429.490019	264.087855	635.659856	-417.504022	348.224716	697.716877	-402.607762	218.577427	517.567049	-404.513969	168.220778	474.816693	-361.940047	444.253105	481.411182	-389.023818	338.052573	449.839829	-448.599483	-228.058802	891.062664	-253.258245	-21.249692	80.025398	-453.934101	-21.495445	80.557706	-54.043490	
253	1.2650	509.078428	1339.977507	-149.110371	478.068936	1348.028651	-441.894854	429.731537	1405.578468	-280.740195	456.371430	1240.236368	-286.029467	587.607252	1073.086218	-55.265696	723.647382	847.270307	-88.963137	531.982143	1071.557796	-550.436459	707.272552	882.970967	-477.361216	-85.838444	1167.285517	-239.195896	85.166159	1181.908463	-416.208835	89.176360	1151.261851	-97.878160	82.353700	1128.129425	-396.196453	106.898988	1104.278561	-123.827019	-49.618987	1201.846269	-186.038215	-59.929952	1214.063837	-291.437336	22.650645	1039.420463	-64.829075	26.930593	1069.927396	-451.519782	112.266385	938.612063	-59.485101	168.544526	878.189158	-65.540781	224.012038	807.772723	-77.499717	208.058746	912.248173	-80.462837	260.585608	698.823409	-102.103339	193.549910	601.531263	-68.922354	157.671005	524.844013	-72.376841	111.651021	448.765994	-83.487889	198.502367	504.884322	-112.038671	41.928403	341.498058	-103.291037	94.381757	340.730307	-178.260177	-5.596079	328.542951	-162.295937	226.592057	185.592028	-136.608218	118.567371	209.404999	-73.963108	126.396943	988.587407	-453.143214	222.611678	977.572645	-451.608138	223.447913	1026.379107	-437.413346	291.888690	948.012802	-429.632763	384.702321	892.303523	-407.759811	325.140539	794.689197	-433.761223	295.829771	713.271934	-429.481895	264.557937	634.132062	-417.506481	348.606250	696.258949	-402.545711	219.364180	515.871918	-404.547516	169.021360	472.861620	-361.886084	444.984129	480.542360	-389.079069	339.055083	448.596387	-448.569889	-228.024387	891.068590	-253.297712	-21.250300	80.029127	-453.947676	-21.497718	80.558462	-54.055096	
